<svg xmlns="http://www.w3.org/2000/svg" width="805" height="600"><rect width="805" height="600" x="0" y="0" fill="#FFFFFF" id="background"/><g id="viz"><g transform="translate(0,0)"><g transform="translate(10,20)"><g><path fill="#cccccc" d="M0,25.454545454545496C19.0414710485133,25.454545454545496,19.0414710485133,229.09090909090907,38.0829420970266,229.09090909090907C55.895931142410014,229.09090909090907,55.895931142410014,280,73.70892018779342,280C92.75039123630673,280,92.75039123630673,330.90909090909093,111.79186228482003,330.90909090909093C130.2190923317684,330.90909090909093,130.2190923317684,458.18181818181813,148.64632237871675,458.18181818181813C167.68779342723005,458.18181818181813,167.68779342723005,432.7272727272727,186.72926447574335,432.7272727272727C205.1564945226917,432.7272727272727,205.1564945226917,458.18181818181813,223.58372456964005,458.18181818181813C242.62519561815333,458.18181818181813,242.62519561815333,458.18181818181813,261.66666666666663,458.18181818181813C280.70813771518,458.18181818181813,280.70813771518,458.18181818181813,299.7496087636933,458.18181818181813C318.17683881064164,458.18181818181813,318.17683881064164,483.6363636363636,336.60406885759,483.6363636363636C355.6455399061033,483.6363636363636,355.6455399061033,509.09090909090907,374.6870109546166,509.09090909090907C393.11424100156495,509.09090909090907,393.11424100156495,483.6363636363636,411.5414710485133,483.6363636363636C430.5829420970266,483.6363636363636,430.5829420970266,509.09090909090907,449.62441314553996,509.09090909090907C468.6658841940532,509.09090909090907,468.6658841940532,509.09090909090907,487.7073552425665,509.09090909090907C504.906103286385,509.09090909090907,504.906103286385,458.18181818181813,522.1048513302035,458.18181818181813C541.1463223787168,458.18181818181813,541.1463223787168,483.6363636363636,560.1877934272301,483.6363636363636C578.6150234741784,483.6363636363636,578.6150234741784,509.09090909090907,597.0422535211268,509.09090909090907C616.08372456964,509.09090909090907,616.08372456964,509.09090909090907,635.1251956181534,509.09090909090907C653.5524256651017,509.09090909090907,653.5524256651017,509.09090909090907,671.9796557120501,509.09090909090907C691.0211267605634,509.09090909090907,691.0211267605634,509.09090909090907,710.0625978090767,509.09090909090907C729.1040688575899,509.09090909090907,729.1040688575899,509.09090909090907,748.1455399061033,509.09090909090907C766.5727699530516,509.09090909090907,766.5727699530516,509.09090909090907,785,509.09090909090907L785,560C766.5727699530516,560,766.5727699530516,560,748.1455399061033,560C729.1040688575899,560,729.1040688575899,560,710.0625978090767,560C691.0211267605634,560,691.0211267605634,560,671.9796557120501,560C653.5524256651017,560,653.5524256651017,560,635.1251956181534,560C616.08372456964,560,616.08372456964,560,597.0422535211268,560C578.6150234741784,560,578.6150234741784,560,560.1877934272301,560C541.1463223787168,560,541.1463223787168,560,522.1048513302035,560C504.906103286385,560,504.906103286385,560,487.7073552425665,560C468.6658841940532,560,468.6658841940532,560,449.62441314553996,560C430.5829420970266,560,430.5829420970266,560,411.5414710485133,560C393.11424100156495,560,393.11424100156495,560,374.6870109546166,560C355.6455399061033,560,355.6455399061033,560,336.60406885759,560C318.17683881064164,560,318.17683881064164,560,299.7496087636933,560C280.70813771518,560,280.70813771518,560,261.66666666666663,560C242.62519561815333,560,242.62519561815333,560,223.58372456964005,560C205.1564945226917,560,205.1564945226917,560,186.72926447574335,560C167.68779342723005,560,167.68779342723005,560,148.64632237871675,560C130.2190923317684,560,130.2190923317684,560,111.79186228482003,560C92.75039123630673,560,92.75039123630673,560,73.70892018779342,560C55.895931142410014,560,55.895931142410014,560,38.0829420970266,560C19.0414710485133,560,19.0414710485133,560,0,560Z"><title/></path></g><g id="xAxis" transform="translate(0,560)" fill="none" font-size="10" font-family="sans-serif" text-anchor="middle"><path class="domain" stroke="currentColor" d="M0,0H785"/><g class="tick" opacity="1" transform="translate(0,0)"><line stroke="currentColor" y2="6"/><text fill="currentColor" y="9" dy="0.71em">2024</text></g><g class="tick" opacity="1" transform="translate(111.79186228482003,0)"><line stroke="currentColor" y2="6"/><text fill="currentColor" y="9" dy="0.71em">April</text></g><g class="tick" opacity="1" transform="translate(223.58372456964005,0)"><line stroke="currentColor" y2="6"/><text fill="currentColor" y="9" dy="0.71em">July</text></g><g class="tick" opacity="1" transform="translate(336.60406885759,0)"><line stroke="currentColor" y2="6"/><text fill="currentColor" y="9" dy="0.71em">October</text></g><g class="tick" opacity="1" transform="translate(449.62441314553996,0)"><line stroke="currentColor" y2="6"/><text fill="currentColor" y="9" dy="0.71em">2025</text></g><g class="tick" opacity="1" transform="translate(560.1877934272301,0)"><line stroke="currentColor" y2="6"/><text fill="currentColor" y="9" dy="0.71em">April</text></g><g class="tick" opacity="1" transform="translate(671.9796557120501,0)"><line stroke="currentColor" y2="6"/><text fill="currentColor" y="9" dy="0.71em">July</text></g><g class="tick" opacity="1" transform="translate(785,0)"><line stroke="currentColor" y2="6"/><text fill="currentColor" y="9" dy="0.71em">October</text></g></g><text y="556" x="785" text-anchor="end" style="font-family: Arial, sans-serif; font-size: 12px; fill: rgb(123, 123, 123); font-weight: bold;">Mes</text><text x="4" text-anchor="start" dominant-baseline="hanging" style="font-family: Arial, sans-serif; font-size: 12px; fill: rgb(123, 123, 123); font-weight: bold;">IPC Indec</text><g id="labels"><text x="0" y="292.7272727272727" text-anchor="start" alignment-baseline="middle" style="font-family: Arial, sans-serif; font-size: 10px; fill: black; font-weight: bold;"/></g></g><text x="4" y="4" style="font-family: Arial, sans-serif; font-size: 12px; fill: black; font-weight: bold; dominant-baseline: hanging;"/></g></g></svg>